<?xml version="1.0" encoding="UTF-8" standalone="no"?>
<!-- Created with Inkscape (http://www.inkscape.org/) -->

<svg
   version="1.1"
   id="svg1"
   width="500"
   height="500"
   viewBox="0 0 500 500"
   sodipodi:docname="4.svg"
   inkscape:export-filename="4.svg"
   inkscape:export-xdpi="96"
   inkscape:export-ydpi="96"
   inkscape:version="1.3.2 (091e20e, 2023-11-25)"
   xmlns:inkscape="http://www.inkscape.org/namespaces/inkscape"
   xmlns:sodipodi="http://sodipodi.sourceforge.net/DTD/sodipodi-0.dtd"
   xmlns="http://www.w3.org/2000/svg"
   xmlns:svg="http://www.w3.org/2000/svg">
  <defs
     id="defs1" />
  <sodipodi:namedview
     id="namedview1"
     pagecolor="#505050"
     bordercolor="#eeeeee"
     borderopacity="1"
     inkscape:showpageshadow="0"
     inkscape:pageopacity="0"
     inkscape:pagecheckerboard="0"
     inkscape:deskcolor="#505050"
     showgrid="false"
     inkscape:zoom="0.472"
     inkscape:cx="250"
     inkscape:cy="250"
     inkscape:window-width="1472"
     inkscape:window-height="801"
     inkscape:window-x="0"
     inkscape:window-y="38"
     inkscape:window-maximized="0"
     inkscape:current-layer="g1" />
  <g
     inkscape:groupmode="layer"
     inkscape:label="Image"
     id="g1">
    <path
       style="display:inline;fill:#7c3aed;stroke:none"
       d="m 175,231 h 1 c 10.79851,-18.31073 20.03746,-43.14343 34.52933,-58.6713 C 220.52617,161.61719 238.33807,154.72885 251,147.57562 291.35785,124.77582 337.05334,105 384,105 377.18329,95.522614 365.62363,88.123383 356,81.670532 325.2157,61.028961 287.98462,50 251,50 239.30298,50 213.24188,48.279816 205.15895,58.108795 194.30928,71.302155 189.20818,89.748688 185.12654,106 174.85753,146.88681 175,189.14944 175,231 m 29,70 c -9.41888,-20.17371 -26.86446,-38.77948 -33.54089,-60 -5.43714,-17.28143 -2.32776,-43.14761 -0.62886,-61 4.19078,-44.03754 7.9998,-83.224213 29.16975,-123 -46.70023,9.664703 -87.34381,44.79651 -112.304779,84 -6.538986,10.27008 -21.013825,32.25284 -18.605713,45 2.694527,14.26321 17.10273,29.17645 26.910492,39 22.31944,22.35539 48.04938,40.84225 75,57.20294 10.71579,6.50513 21.98041,14.99353 34,18.79706 m 18,-130 v 1 c 20.91281,0 47.71756,-4.52716 68,0.41821 14.37827,3.5058 29.40625,15.62604 42,23.1821 39.86505,23.91849 79.23352,52.71875 103,93.39969 6.27798,-11.72198 6,-29.03171 6,-42 0,-35.3176 -6.25391,-68.93292 -24.00076,-100 -5.72196,-10.01666 -16.76816,-33.08179 -29.01389,-35.65588 C 370.98941,107.77151 351.24197,112.94382 335,117.5787 295.33789,128.89688 256.33914,148.27768 222,171 m 74,11 c 10.33432,19.41699 28.34778,39.83151 34.36267,61 3.43066,12.07368 0.63733,28.46533 0.63733,41 0,34.28101 -2.91751,69.96414 -12.72067,103 -4.06403,13.6955 -12.06076,25.6691 -16.27933,39 47.01135,-15.29169 88.09198,-43.35129 113.14969,-87 5.91894,-10.31036 18.48175,-28.57004 17.13656,-41 C 430.70813,283.41757 414.70587,267.70648 405,258 385.22867,238.22742 363.27731,222.33557 340,206.99692 326.37747,198.02029 311.3855,187.59885 296,182 M 64,194 c -0.930298,11.38983 -4.456757,22.49261 -4.960648,34 -1.618484,36.96133 5.57721,70.97131 22.208329,104 5.865028,11.64771 16.89946,34.34592 29.752319,39.25772 13.79404,5.27149 36.45534,-0.6608 50,-4.54861 C 202.04654,354.92719 242.37921,335.57037 278,312 v -1 h -45 c -7.21808,0 -16.01491,1.34518 -23,-0.63733 C 196.30385,306.4754 182.02031,295.90616 170,288.42361 139.28925,269.3064 109.85819,248.60054 85.089508,222 77.152153,213.47562 72.215065,201.95938 64,194 m 260,58 c -6.78879,12.88898 -14.51456,25.33514 -21.71915,38 -3.73019,6.55728 -7.25753,15.16125 -12.65973,20.48224 C 277.74896,322.17593 258.62274,330.06519 244,337.78088 203.97968,358.89755 162.01953,378 116,378 c 29.64034,36.76019 87.35088,55 133,55 11.81589,0 32.34882,1.59265 42.69986,-4.98843 C 302.29074,421.27802 308.08682,401.36292 311.42438,390 321.22101,356.64679 325,321.67224 325,287 c 0,-10.10959 2.90765,-25.68753 -1,-35 z"
       id="path1"
       inkscape:label="path1" />
  </g>
</svg>
