<?xml version="1.0" encoding="UTF-8" standalone="no"?>
<!-- Created with Inkscape (http://www.inkscape.org/) -->

<svg
   width="179.17313mm"
   height="25.736996mm"
   viewBox="0 0 179.17313 25.736996"
   version="1.1"
   id="svg1"
   inkscape:version="1.3.2 (091e20e, 2023-11-25)"
   sodipodi:docname="drawing.svg"
   inkscape:export-filename="logo.svg"
   inkscape:export-xdpi="96"
   inkscape:export-ydpi="96"
   xmlns:inkscape="http://www.inkscape.org/namespaces/inkscape"
   xmlns:sodipodi="http://sodipodi.sourceforge.net/DTD/sodipodi-0.dtd"
   xmlns="http://www.w3.org/2000/svg"
   xmlns:svg="http://www.w3.org/2000/svg">
  <sodipodi:namedview
     id="namedview1"
     pagecolor="#505050"
     bordercolor="#eeeeee"
     borderopacity="1"
     inkscape:showpageshadow="0"
     inkscape:pageopacity="0"
     inkscape:pagecheckerboard="0"
     inkscape:deskcolor="#505050"
     inkscape:document-units="mm"
     inkscape:zoom="1.1769891"
     inkscape:cx="64.57154"
     inkscape:cy="288.02306"
     inkscape:window-width="1472"
     inkscape:window-height="801"
     inkscape:window-x="0"
     inkscape:window-y="37"
     inkscape:window-maximized="1"
     inkscape:current-layer="layer1"
     inkscape:export-bgcolor="#ffffff90" />
  <defs
     id="defs1" />
  <g
     inkscape:label="Layer 1"
     inkscape:groupmode="layer"
     id="layer1"
     transform="translate(-17.794379,-133.86512)">
    <path
       style="font-weight:800;font-size:15.5204px;font-family:Inter;-inkscape-font-specification:'Inter Ultra-Bold';fill:#7c3aed;stroke-width:0.291007"
       d="m 50.498309,153.34575 v -11.2917 h 4.622775 q 1.303471,0 2.25834,0.46986 0.954868,0.46228 1.470194,1.31863 0.522904,0.85635 0.522904,2.03099 0,1.16706 -0.522904,2.02341 -0.522904,0.85635 -1.485351,1.3262 -0.954868,0.46986 -2.258339,0.46986 h -3.061642 v -2.26592 h 2.88734 q 0.545639,0 0.939712,-0.18946 0.401651,-0.18946 0.621422,-0.53806 0.219772,-0.35618 0.219772,-0.82603 0,-0.48502 -0.219772,-0.82604 -0.219771,-0.3486 -0.621422,-0.53806 -0.394073,-0.19704 -0.939712,-0.19704 h -1.705122 v 9.03336 z m 9.883639,0 v -8.00271 h 2.523581 v 1.40957 h 0.02273 q 0.219771,-0.76541 0.682049,-1.09886 0.469856,-0.34102 1.273157,-0.34102 0.212193,0 0.378916,0.008 0.174302,0 0.333447,0.008 v 2.15224 q -0.143989,-0.008 -0.447121,-0.0152 -0.295555,-0.008 -0.583531,-0.008 -0.462278,0 -0.818459,0.2122 -0.356181,0.20461 -0.560795,0.60626 -0.197037,0.40165 -0.197037,0.97003 v 4.09987 z m 9.951844,0.18188 q -1.250423,0 -2.205291,-0.51533 -0.94729,-0.51532 -1.477773,-1.45503 -0.530482,-0.93972 -0.530482,-2.21287 0,-1.26558 0.530482,-2.2053 0.530483,-0.93971 1.477773,-1.45503 0.954868,-0.52291 2.205291,-0.52291 1.258001,0 2.197713,0.52291 0.94729,0.51532 1.477773,1.45503 0.530482,0.93972 0.530482,2.2053 0,1.27315 -0.530482,2.21287 -0.530483,0.93971 -1.477773,1.45503 -0.939712,0.51533 -2.197713,0.51533 z m 0,-2.07646 q 0.454699,0 0.803302,-0.24251 0.356181,-0.25008 0.560796,-0.71994 0.204614,-0.46985 0.204614,-1.14432 0,-0.67447 -0.204614,-1.14433 -0.204615,-0.46986 -0.560796,-0.71236 -0.348603,-0.25009 -0.803302,-0.25009 -0.454699,0 -0.81088,0.25009 -0.356181,0.2425 -0.560796,0.71236 -0.197036,0.46986 -0.197036,1.14433 0,0.67447 0.197036,1.14432 0.204615,0.46986 0.560796,0.71994 0.356181,0.24251 0.81088,0.24251 z m 8.457405,2.06888 q -1.045808,0 -1.826375,-0.51533 -0.780567,-0.5229 -1.212531,-1.46261 -0.424386,-0.94729 -0.424386,-2.21287 0,-1.22769 0.439542,-2.1674 0.439543,-0.93971 1.212532,-1.46262 0.772988,-0.53048 1.788483,-0.53048 0.522904,0 0.94729,0.13641 0.424386,0.13641 0.757832,0.41681 0.341025,0.27282 0.591109,0.6972 h 0.0076 v -4.36511 h 2.61452 v 11.2917 h -2.584207 v -1.23527 h -0.0076 q -0.204615,0.46986 -0.545639,0.78815 -0.341025,0.31071 -0.788146,0.46228 -0.447121,0.15914 -0.970025,0.15914 z m 0.727519,-2.08404 q 0.500169,0 0.871507,-0.25766 0.371338,-0.26524 0.575952,-0.7351 0.212193,-0.46985 0.212193,-1.11401 0,-0.63658 -0.212193,-1.09886 -0.204614,-0.46985 -0.575952,-0.72752 -0.371338,-0.25766 -0.871507,-0.25766 -0.469856,0 -0.826037,0.25009 -0.348603,0.25008 -0.538061,0.71994 -0.181879,0.46227 -0.181879,1.11401 0,0.65931 0.181879,1.12917 0.189458,0.46985 0.538061,0.72752 0.356181,0.25008 0.826037,0.25008 z m 8.374043,2.08404 q -0.863928,0 -1.48535,-0.37134 -0.613844,-0.37891 -0.939712,-1.0837 -0.325868,-0.70478 -0.325868,-1.68996 v -5.03201 h 2.606942 v 4.48637 q 0,0.70478 0.341025,1.0837 0.348603,0.37891 0.962447,0.37891 0.409229,0 0.712362,-0.1743 0.310711,-0.1743 0.477434,-0.5229 0.166723,-0.35618 0.166723,-0.90182 v -4.34996 h 2.606942 v 8.00271 h -2.576629 v -2.14467 h 0.386494 q -0.371337,1.05339 -1.076121,1.68997 -0.697205,0.629 -1.856689,0.629 z m 10.382302,0.008 q -1.235267,0 -2.1674,-0.52291 -0.932133,-0.53048 -1.455037,-1.47019 -0.515326,-0.93971 -0.515326,-2.19013 0,-1.24285 0.515326,-2.18256 0.522904,-0.94729 1.455037,-1.47019 0.932133,-0.53049 2.1674,-0.53049 0.833615,0 1.53082,0.24251 0.704789,0.24251 1.220109,0.68963 0.52291,0.43954 0.82604,1.05338 0.30313,0.60627 0.3486,1.34137 h -2.516002 q -0.03031,-0.2804 -0.13641,-0.51533 -0.106096,-0.23493 -0.287976,-0.40165 -0.174301,-0.16672 -0.409229,-0.25009 -0.234928,-0.0909 -0.522904,-0.0909 -0.485013,0 -0.833615,0.25767 -0.348603,0.25008 -0.530483,0.72752 -0.181879,0.47743 -0.181879,1.12917 0,0.65173 0.181879,1.12917 0.18188,0.47743 0.530483,0.73509 0.348602,0.25009 0.833615,0.25009 0.287976,0 0.522904,-0.0834 0.234928,-0.0909 0.401651,-0.25767 0.174301,-0.1743 0.280398,-0.40923 0.106096,-0.2425 0.143988,-0.53048 h 2.52358 q -0.0227,0.7351 -0.31829,1.34894 -0.29555,0.60627 -0.81846,1.06097 -0.5229,0.44712 -1.235264,0.6972 -0.704783,0.24251 -1.553555,0.24251 z m 10.056429,-8.18459 v 2.01584 h -5.62311 v -2.01584 z m -4.25902,-2.18255 h 2.61452 v 7.49496 q 0,0.38649 0.15157,0.53048 0.15157,0.14399 0.59111,0.14399 0.19704,0 0.48501,0 0.28798,0 0.41681,0 v 2.01583 q -0.20461,0 -0.62142,0 -0.41681,0 -0.85635,0 -1.43988,0 -2.11435,-0.53806 -0.6669,-0.54564 -0.6669,-1.7127 z m 5.30483,10.18526 v -8.00271 h 2.60694 v 8.00271 z m 1.29589,-8.78327 q -0.629,0 -1.03065,-0.37134 -0.40165,-0.37134 -0.40165,-0.94729 0,-0.57595 0.40165,-0.93971 0.40165,-0.37134 1.03065,-0.37134 0.629,0 1.03065,0.37134 0.40923,0.36376 0.40923,0.93971 0,0.57595 -0.40923,0.94729 -0.40165,0.37134 -1.03065,0.37134 z m 6.64619,8.96515 q -1.25042,0 -2.20529,-0.51533 -0.94729,-0.51532 -1.47777,-1.45503 -0.53049,-0.93972 -0.53049,-2.21287 0,-1.26558 0.53049,-2.2053 0.53048,-0.93971 1.47777,-1.45503 0.95487,-0.52291 2.20529,-0.52291 1.258,0 2.19771,0.52291 0.94729,0.51532 1.47778,1.45503 0.53048,0.93972 0.53048,2.2053 0,1.27315 -0.53048,2.21287 -0.53049,0.93971 -1.47778,1.45503 -0.93971,0.51533 -2.19771,0.51533 z m 0,-2.07646 q 0.4547,0 0.8033,-0.24251 0.35618,-0.25008 0.5608,-0.71994 0.20461,-0.46985 0.20461,-1.14432 0,-0.67447 -0.20461,-1.14433 -0.20462,-0.46986 -0.5608,-0.71236 -0.3486,-0.25009 -0.8033,-0.25009 -0.4547,0 -0.81088,0.25009 -0.35618,0.2425 -0.5608,0.71236 -0.19703,0.46986 -0.19703,1.14433 0,0.67447 0.19703,1.14432 0.20462,0.46986 0.5608,0.71994 0.35618,0.24251 0.81088,0.24251 z m 7.9345,-2.45538 v 4.34996 h -2.60694 v -8.00271 h 2.57663 v 2.14467 h -0.3865 q 0.37134,-1.06097 1.07612,-1.68997 0.70479,-0.629 1.85669,-0.629 0.87151,0 1.48535,0.37892 0.61385,0.37133 0.93971,1.07612 0.32587,0.70478 0.32587,1.68996 v 5.03201 h -2.60694 v -4.48637 q 0,-0.71236 -0.34102,-1.0837 -0.34103,-0.37891 -0.96245,-0.37891 -0.40923,0 -0.71994,0.1743 -0.30313,0.1743 -0.46986,0.53048 -0.16672,0.3486 -0.16672,0.89424 z m 14.91413,4.53184 q -1.54598,0 -2.78124,-0.68963 -1.22769,-0.6972 -1.94005,-2.00068 -0.70479,-1.30347 -0.70479,-3.12984 0,-1.84153 0.70479,-3.145 0.71236,-1.31105 1.94005,-2.00068 1.23526,-0.68963 2.78124,-0.68963 1.03065,0 1.90974,0.31071 0.87908,0.30314 1.54598,0.87151 0.67447,0.5608 1.09127,1.34894 0.42439,0.78815 0.55322,1.76575 h -2.75093 q -0.0834,-0.4547 -0.28797,-0.81088 -0.19704,-0.35618 -0.4926,-0.59869 -0.29555,-0.25008 -0.68204,-0.37891 -0.3865,-0.12884 -0.8412,-0.12884 -0.8715,0 -1.47777,0.41681 -0.60627,0.41681 -0.93213,1.1898 -0.31829,0.77299 -0.31829,1.84911 0,1.06854 0.31829,1.84153 0.31829,0.76541 0.92455,1.18222 0.61385,0.41681 1.48535,0.41681 0.4547,0 0.83362,-0.12126 0.38649,-0.12883 0.68205,-0.37891 0.29555,-0.25009 0.49259,-0.59869 0.20461,-0.35618 0.30313,-0.8033 h 2.74335 q -0.12883,0.97002 -0.55322,1.75817 -0.4168,0.78814 -1.09127,1.35652 -0.67447,0.56079 -1.55356,0.86393 -0.87151,0.30313 -1.90216,0.30313 z m 10.07917,0 q -1.25042,0 -2.20529,-0.51533 -0.94729,-0.51532 -1.47777,-1.45503 -0.53048,-0.93972 -0.53048,-2.21287 0,-1.26558 0.53048,-2.2053 0.53048,-0.93971 1.47777,-1.45503 0.95487,-0.52291 2.20529,-0.52291 1.258,0 2.19772,0.52291 0.94729,0.51532 1.47777,1.45503 0.53048,0.93972 0.53048,2.2053 0,1.27315 -0.53048,2.21287 -0.53048,0.93971 -1.47777,1.45503 -0.93972,0.51533 -2.19772,0.51533 z m 0,-2.07646 q 0.4547,0 0.80331,-0.24251 0.35618,-0.25008 0.56079,-0.71994 0.20462,-0.46985 0.20462,-1.14432 0,-0.67447 -0.20462,-1.14433 -0.20461,-0.46986 -0.56079,-0.71236 -0.34861,-0.25009 -0.80331,-0.25009 -0.4547,0 -0.81088,0.25009 -0.35618,0.2425 -0.56079,0.71236 -0.19704,0.46986 -0.19704,1.14433 0,0.67447 0.19704,1.14432 0.20461,0.46986 0.56079,0.71994 0.35618,0.24251 0.81088,0.24251 z m 7.9345,-2.45538 v 4.34996 h -2.60694 v -8.00271 h 2.57663 v 2.14467 h -0.3865 q 0.37134,-1.06097 1.07613,-1.68997 0.70478,-0.629 1.85668,-0.629 0.87151,0 1.48536,0.37892 0.61384,0.37133 0.93971,1.07612 0.32586,0.70478 0.32586,1.68996 v 5.03201 h -2.60694 v -4.48637 q 0,-0.71236 -0.34102,-1.0837 -0.34103,-0.37891 -0.96245,-0.37891 -0.40923,0 -0.71994,0.1743 -0.30313,0.1743 -0.46985,0.53048 -0.16673,0.3486 -0.16673,0.89424 z m 9.32891,0 v 4.34996 h -2.60694 v -8.00271 h 2.57663 v 2.14467 h -0.38649 q 0.37133,-1.06097 1.07612,-1.68997 0.70478,-0.629 1.85669,-0.629 0.8715,0 1.48535,0.37892 0.61384,0.37133 0.93971,1.07612 0.32587,0.70478 0.32587,1.68996 v 5.03201 h -2.60695 v -4.48637 q 0,-0.71236 -0.34102,-1.0837 -0.34103,-0.37891 -0.96245,-0.37891 -0.40923,0 -0.71994,0.1743 -0.30313,0.1743 -0.46985,0.53048 -0.16673,0.3486 -0.16673,0.89424 z m 10.51113,4.53184 q -1.22769,0 -2.15982,-0.53048 -0.92455,-0.53806 -1.44746,-1.48535 -0.51532,-0.94729 -0.51532,-2.1674 0,-1.22011 0.51532,-2.1674 0.52291,-0.94729 1.43988,-1.47778 0.91698,-0.53806 2.0992,-0.53806 0.90182,0 1.64449,0.30314 0.74268,0.29555 1.28074,0.84877 0.54564,0.55322 0.84119,1.31105 0.29556,0.75025 0.29556,1.65965 v 0.70478 h -7.26761 v -1.56113 h 6.0475 l -1.19738,0.31829 q 0,-0.51533 -0.18946,-0.88667 -0.18945,-0.37133 -0.54563,-0.56837 -0.34861,-0.20461 -0.8412,-0.20461 -0.49259,0 -0.84877,0.20461 -0.3486,0.19704 -0.54564,0.56837 -0.18946,0.37134 -0.18946,0.88667 v 1.1519 q 0,0.53049 0.19704,0.93214 0.20461,0.39407 0.57595,0.60626 0.37892,0.2122 0.90182,0.2122 0.3865,0 0.68963,-0.1061 0.30313,-0.1061 0.50775,-0.30313 0.20461,-0.19704 0.30313,-0.4547 h 2.3417 q -0.14399,0.8033 -0.69721,1.42472 -0.55321,0.61384 -1.39441,0.97003 -0.83361,0.3486 -1.84153,0.3486 z m 8.88938,0 q -1.23527,0 -2.1674,-0.52291 -0.93213,-0.53048 -1.45504,-1.47019 -0.51532,-0.93971 -0.51532,-2.19013 0,-1.24285 0.51532,-2.18256 0.52291,-0.94729 1.45504,-1.47019 0.93213,-0.53049 2.1674,-0.53049 0.83362,0 1.53082,0.24251 0.70478,0.24251 1.22011,0.68963 0.5229,0.43954 0.82604,1.05338 0.30313,0.60627 0.3486,1.34137 h -2.516 q -0.0303,-0.2804 -0.13641,-0.51533 -0.1061,-0.23493 -0.28798,-0.40165 -0.1743,-0.16672 -0.40923,-0.25009 -0.23493,-0.0909 -0.5229,-0.0909 -0.48501,0 -0.83362,0.25767 -0.3486,0.25008 -0.53048,0.72752 -0.18188,0.47743 -0.18188,1.12917 0,0.65173 0.18188,1.12917 0.18188,0.47743 0.53048,0.73509 0.34861,0.25009 0.83362,0.25009 0.28797,0 0.5229,-0.0834 0.23493,-0.0909 0.40165,-0.25767 0.17431,-0.1743 0.2804,-0.40923 0.1061,-0.2425 0.14399,-0.53048 h 2.52358 q -0.0227,0.7351 -0.31829,1.34894 -0.29555,0.60627 -0.81846,1.06097 -0.5229,0.44712 -1.23526,0.6972 -0.70479,0.24251 -1.55356,0.24251 z m 10.05642,-8.18459 v 2.01584 h -5.62312 v -2.01584 z m -4.25902,-2.18255 h 2.61452 v 7.49496 q 0,0.38649 0.15157,0.53048 0.15157,0.14399 0.59111,0.14399 0.19703,0 0.48501,0 0.28798,0 0.41681,0 v 2.01583 q -0.20462,0 -0.62142,0 -0.41681,0 -0.85635,0 -1.43988,0 -2.11436,-0.53806 -0.66689,-0.54564 -0.66689,-1.7127 z"
       id="text1"
       aria-label="Production Connect" />
    <path
       style="display:inline;fill:#7c3aed;stroke:none;stroke-width:0.0671483"
       d="m 25.59589,146.02674 h 0.06715 c 0.725103,-1.22953 1.345483,-2.89701 2.318589,-3.93968 0.671272,-0.71926 1.867313,-1.1818 2.717542,-1.66213 2.709963,-1.53097 5.778344,-2.85889 8.930736,-2.85889 -0.45773,-0.63639 -1.233946,-1.13324 -1.880155,-1.56654 -2.067118,-1.38604 -4.567124,-2.12662 -7.050581,-2.12662 -0.785437,0 -2.535398,-0.11551 -3.078154,0.54449 -0.728538,0.88591 -1.071068,2.12457 -1.345144,3.21582 -0.689548,2.74548 -0.679981,5.58336 -0.679981,8.39355 m 1.947303,4.70039 c -0.632462,-1.35463 -1.803905,-2.60398 -2.252216,-4.02891 -0.365096,-1.16042 -0.156306,-2.89729 -0.04223,-4.09605 0.281405,-2.95705 0.537174,-5.58837 1.958702,-8.25925 -3.135845,0.64897 -5.864996,3.00801 -7.541086,5.64047 -0.439082,0.68961 -1.411045,2.16572 -1.249343,3.02167 0.180933,0.95776 1.148421,1.95916 1.806996,2.61879 1.498715,1.50113 3.226439,2.74249 5.03613,3.84109 0.719548,0.4368 1.475949,1.00678 2.283045,1.26219 m 1.208671,-8.72929 v 0.0671 c 1.404262,0 3.204158,-0.30399 4.566092,0.0281 0.965477,0.23541 1.974581,1.04927 2.820233,1.55665 2.676874,1.60608 5.320406,3.53997 6.916287,6.27163 0.421559,-0.78711 0.402892,-1.94943 0.402892,-2.82023 0,-2.37152 -0.41994,-4.62874 -1.611615,-6.71484 -0.38422,-0.6726 -1.125959,-2.22139 -1.948234,-2.39424 -1.141253,-0.23989 -2.467264,0.10742 -3.557885,0.41865 -2.663249,0.76 -5.281953,2.06139 -7.58777,3.58715 m 4.968982,0.73864 c 0.693934,1.30381 1.903508,2.67462 2.307398,4.09605 0.230363,0.81073 0.04279,1.9114 0.04279,2.75308 0,2.30192 -0.195905,4.69798 -0.854171,6.91628 -0.272894,0.91963 -0.809862,1.72364 -1.093131,2.61879 3.156737,-1.02681 5.915234,-2.91096 7.597821,-5.84191 0.397444,-0.69232 1.241019,-1.91843 1.150689,-2.75308 -0.105971,-0.97919 -1.180492,-2.03416 -1.83223,-2.68594 -1.327613,-1.32769 -2.801608,-2.3948 -4.364643,-3.42477 -0.91473,-0.60277 -1.921418,-1.30255 -2.954527,-1.6785 m -15.578429,0.80578 c -0.06247,0.76481 -0.299264,1.51034 -0.333099,2.28304 -0.108679,2.48189 0.3745,4.76561 1.491253,6.98343 0.393827,0.78213 1.134772,2.30628 1.997821,2.63609 0.926247,0.35398 2.447917,-0.0444 3.357419,-0.30543 2.75621,-0.79113 5.464484,-2.09091 7.856364,-3.67362 v -0.0671 h -3.021678 c -0.484684,0 -1.075375,0.0903 -1.544414,-0.0428 -0.919674,-0.26103 -1.87879,-0.97073 -2.685935,-1.47317 -2.062177,-1.28369 -4.038426,-2.67405 -5.701603,-4.46024 -0.532981,-0.5724 -0.864499,-1.34569 -1.416127,-1.88016 m 17.458583,3.89461 c -0.455856,0.86548 -0.97463,1.70122 -1.458407,2.55164 -0.250476,0.44031 -0.487332,1.01805 -0.85008,1.37535 -0.797195,0.78521 -2.081491,1.31496 -3.063386,1.83306 -2.687299,1.41795 -5.504856,2.70065 -8.594994,2.70065 1.990302,2.46839 5.865472,3.69316 8.930737,3.69316 0.793419,0 2.172172,0.10695 2.867227,-0.33496 0.711161,-0.45215 1.100359,-1.78942 1.32447,-2.55242 0.657829,-2.23961 0.911581,-4.5881 0.911581,-6.91628 0,-0.67885 0.195245,-1.72488 -0.06715,-2.3502 z"
       id="path1"
       inkscape:label="path1" />
  </g>
</svg>
